<svg xmlns="http://www.w3.org/2000/svg" width="1200" height="800" viewBox="0 0 1200 800">
  <rect width="1200" height="800" fill="#e8f7fe"/>
  <rect x="120" y="180" width="300" height="430" rx="16" fill="#153898"/>
  <rect x="480" y="120" width="360" height="490" rx="16" fill="#ffffff"/>
  <rect x="900" y="230" width="190" height="380" rx="16" fill="#153898"/>
  <g fill="#f9b200">
    <rect x="170" y="235" width="54" height="54" rx="5"/>
    <rect x="270" y="235" width="54" height="54" rx="5"/>
    <rect x="170" y="340" width="54" height="54" rx="5"/>
    <rect x="270" y="340" width="54" height="54" rx="5"/>
    <rect x="550" y="185" width="62" height="62" rx="5"/>
    <rect x="690" y="185" width="62" height="62" rx="5"/>
    <rect x="550" y="315" width="62" height="62" rx="5"/>
    <rect x="690" y="315" width="62" height="62" rx="5"/>
    <rect x="950" y="285" width="52" height="52" rx="5"/>
    <rect x="950" y="390" width="52" height="52" rx="5"/>
  </g>
  <rect x="610" y="475" width="100" height="135" rx="8" fill="#153898"/>
  <path d="M0 620 C190 560 310 670 510 610 C720 548 870 650 1200 590 L1200 800 L0 800 Z" fill="#8ed8f8"/>
</svg>
