<svg width="20" height="20" viewBox="0 0 20 20" fill="none" xmlns="http://www.w3.org/2000/svg">
  <path
    d="M13.3333 12.6667V14.0729L14.0833 14.9167M7.50001 9.16667H3.33334M16.6667 7.5V5.83333C16.6667 4.91286 15.9205 4.16667 15 4.16667H5.00001C4.07954 4.16667 3.33334 4.91286 3.33334 5.83333V15.8333C3.33334 16.7538 4.07954 17.5 5.00001 17.5H7.50001M12.5 2.5V5.83333M7.50001 2.5V5.83333M17.0833 14.1667C17.0833 16.2377 15.4044 17.9167 13.3333 17.9167C11.2623 17.9167 9.58334 16.2377 9.58334 14.1667C9.58334 12.0956 11.2623 10.4167 13.3333 10.4167C15.4044 10.4167 17.0833 12.0956 17.0833 14.1667Z"
    stroke="CurrentColor" stroke-width="1.5" stroke-linecap="round" stroke-linejoin="round" />
</svg>