<svg preserveAspectRatio="none" width="100%" height="100%" overflow="visible" style="display: block;" viewBox="0 0 25.5686 30" fill="none" xmlns="http://www.w3.org/2000/svg">
<g id="Group">
<path id="Vector" d="M25.5686 13.6553L21.3044 11.7294L17.0443 13.6553V21.4819L21.3044 19.556L25.5686 21.4819V13.6553Z" fill="var(--fill-0, #153898)"/>
<path id="Vector_2" d="M25.5686 1.92592L21.3044 1.83105e-05L17.0443 1.92592V9.75257L21.3044 7.82666L25.5686 9.75257V1.92592Z" fill="var(--fill-0, #153898)"/>
<path id="Vector_3" d="M0 1.92598V9.75262L3.509 0.00431396L0 1.92598Z" fill="var(--fill-0, #153898)"/>
<path id="Vector_4" d="M5.01533 0.00426636L8.52434 9.75258V1.92593L5.01533 0.00426636Z" fill="var(--fill-0, #153898)"/>
<g id="Group_2">
<path id="Vector_5" d="M3.5387 0V7.82664L0 9.75255L3.509 0.00423975L3.5387 0Z" fill="var(--fill-0, #F9B200)"/>
<path id="Vector_6" d="M8.52444 9.75257L4.98574 7.82666V1.83105e-05L5.01543 0.00425806L8.52444 9.75257Z" fill="var(--fill-0, #F9B200)"/>
</g>
<path id="Vector_7" d="M8.52429 20.4256V13.3328H0V21.5243C0 26.2076 3.79752 30 8.47761 30H17.0443V21.4776H9.57656C8.99102 21.4776 8.52004 21.0068 8.52004 20.4213L8.52429 20.4256Z" fill="var(--fill-0, #153898)"/>
</g>
</svg>
