<svg width="20" height="20" viewBox="0 0 20 20" fill="none" xmlns="http://www.w3.org/2000/svg">
    <path
        d="M9.60417 14.1667L4.89583 9.45833L6.0625 8.29167L9.60417 11.8333L17.25 4.1875L18.4375 5.33333L9.60417 14.1667ZM4.16667 17.5C3.70833 17.5 3.31583 17.3369 2.98917 17.0108C2.66306 16.6842 2.5 16.2917 2.5 15.8333V4.16667C2.5 3.70833 2.66306 3.31583 2.98917 2.98917C3.31583 2.66306 3.70833 2.5 4.16667 2.5H15.8333C15.9444 2.5 16.0486 2.51028 16.1458 2.53083C16.2431 2.55194 16.3403 2.58333 16.4375 2.625L14.8958 4.16667H4.16667V15.8333H15.8333V10.2917L17.5 8.625V15.8333C17.5 16.2917 17.3369 16.6842 17.0108 17.0108C16.6842 17.3369 16.2917 17.5 15.8333 17.5H4.16667Z"
        fill="CurrentColor" />
</svg>