<svg width="17" height="21" viewBox="0 0 17 21" fill="none" xmlns="http://www.w3.org/2000/svg">
    <path
        d="M8.5 20.25C7.3385 19.2255 6.03083 18.4309 4.577 17.8663C3.12317 17.3016 1.5975 16.9936 0 16.9423V6.76925C1.6065 6.81408 3.14142 7.14867 4.60475 7.773C6.06825 8.39733 7.36667 9.23325 8.5 10.2808C9.63333 9.23325 10.9318 8.39733 12.3953 7.773C13.8586 7.14867 15.3935 6.81408 17 6.76925V16.9423C15.3923 16.9936 13.8641 17.3016 12.4152 17.8663C10.9666 18.4309 9.6615 19.2255 8.5 20.25ZM8.5 18.323C9.55 17.5462 10.6667 16.923 11.85 16.4535C13.0333 15.984 14.25 15.6738 15.5 15.523V8.43075C14.2385 8.64742 13.017 9.07692 11.8355 9.71925C10.6542 10.3614 9.54233 11.2037 8.5 12.246C7.45767 11.2037 6.34583 10.3614 5.1645 9.71925C3.983 9.07692 2.7615 8.64742 1.5 8.43075V15.523C2.75 15.6738 3.96667 15.984 5.15 16.4535C6.33333 16.923 7.45 17.5462 8.5 18.323ZM8.5 7.23075C7.50583 7.23075 6.65475 6.87675 5.94675 6.16875C5.23875 5.46075 4.88475 4.60958 4.88475 3.61525C4.88475 2.62108 5.23875 1.77 5.94675 1.062C6.65475 0.354 7.50583 0 8.5 0C9.49417 0 10.3453 0.354 11.0533 1.062C11.7613 1.77 12.1152 2.62108 12.1152 3.61525C12.1152 4.60958 11.7613 5.46075 11.0533 6.16875C10.3453 6.87675 9.49417 7.23075 8.5 7.23075ZM8.50025 5.73075C9.08208 5.73075 9.58008 5.52358 9.99425 5.10925C10.4084 4.69492 10.6155 4.19683 10.6155 3.615C10.6155 3.03317 10.4083 2.53517 9.994 2.121C9.57967 1.707 9.08158 1.5 8.49975 1.5C7.91792 1.5 7.41992 1.70717 7.00575 2.1215C6.59158 2.53583 6.3845 3.03392 6.3845 3.61575C6.3845 4.19758 6.59167 4.6955 7.006 5.1095C7.42033 5.52367 7.91842 5.73075 8.50025 5.73075Z"
        fill="currentColor" />
</svg>