<svg xmlns="http://www.w3.org/2000/svg" width="30" height="30" viewBox="0 0 30 30" fill="none">
  <g clip-path="url(#clip0_53_953)">
    <path
      d="M8.50465 2.30879L14.0024 7.80656L12.3055 12.3054L7.80668 14.0023L2.30892 8.50453L6.80778 6.80766L8.50465 2.30879ZM8.20877 0.940674L6.21855 6.21843L0.940796 8.20865L7.61702 14.8849L12.8948 12.8946L14.885 7.61689L8.20877 0.940674Z"
      fill="#F9B200" />
    <path
      d="M22.1934 15.9976L27.6912 21.4953L23.1923 23.1922L21.4955 27.6911L15.9977 22.1933L17.6946 17.6944L22.1934 15.9976ZM22.3831 15.115L17.1053 17.1052L15.1151 22.383L21.7913 29.0592L23.7816 23.7814L29.0593 21.7912L22.3831 15.115Z"
      fill="#F9B200" />
    <path
      d="M7.80668 15.9976L12.3055 17.6944L14.0024 22.1933L8.50465 27.6911L6.80778 23.1922L2.30892 21.4953L7.80668 15.9976ZM7.61702 15.115L0.940796 21.7912L6.21855 23.7814L8.20877 29.0592L14.885 22.383L12.8948 17.1052L7.61702 15.115Z"
      fill="#153898" />
    <path
      d="M21.4955 2.30879L23.1923 6.80766L27.6912 8.50453L22.1934 14.0023L17.6946 12.3054L15.9977 7.80656L21.4955 2.30879ZM21.7913 0.940674L15.1151 7.61689L17.1053 12.8946L22.3831 14.8849L29.0593 8.20865L23.7816 6.21843L21.7913 0.940674Z"
      fill="#153898" />
    <path
      d="M7.61702 14.8849L12.8948 12.8946L14.885 7.61689L8.20877 0.940674L6.21855 6.21843L0.940796 8.20865L7.61702 14.8849Z"
      fill="#F9B200" />
    <path
      d="M22.3831 15.115L17.1079 17.1077L15.1151 22.383L21.7913 29.0592L23.7816 23.7814L29.0593 21.7912L22.3831 15.115Z"
      fill="#F9B200" />
    <path
      d="M14.885 22.383L12.8948 17.1077L7.61702 15.115L0.940796 21.7912L6.21855 23.7814L8.20877 29.0592L14.885 22.383Z"
      fill="#153898" />
    <path
      d="M15.1151 7.61689L17.1079 12.8946L22.3831 14.8849L29.0593 8.20865L23.7816 6.21843L21.7913 0.940674L15.1151 7.61689Z"
      fill="#153898" />
  </g>
  <defs>
    <clipPath id="clip0_53_953">
      <rect width="30" height="30" fill="white" />
    </clipPath>
  </defs>
</svg>