<svg xmlns="http://www.w3.org/2000/svg" width="20" height="20" viewBox="0 0 20 20" fill="none">
    <g clip-path="url(#clip0_740_2285)">
        <path fill-rule="evenodd" clip-rule="evenodd"
            d="M0 7.66906C0.427557 3.53394 3.79206 0.270539 7.97194 0.000379654C7.92324 0.0394767 7.87837 0.0839156 7.83826 0.133251C6.08074 2.29451 4.98829 4.91217 4.6829 7.66906H0ZM5.21709 12.7272C5.21709 12.79 5.21943 12.8524 5.22406 12.9143V16.4799C2.39056 15.294 0.328516 12.6317 6.90786e-06 9.45477H4.68291C4.78744 10.3983 4.98416 11.3256 5.26819 12.2238C5.23457 12.3874 5.21709 12.5559 5.21709 12.7272ZM6.4811 9.45477H8.98163L6.72317 10.4333C6.69886 10.4438 6.67477 10.4547 6.65091 10.466C6.58084 10.132 6.52414 9.79467 6.4811 9.45477ZM17.0674 7.66906H12.3791C12.0737 4.91217 10.9812 2.29451 9.2237 0.133251C9.18346 0.0837559 9.13843 0.039189 9.08956 0C13.2722 0.267464 16.6396 3.532 17.0674 7.66906ZM6.4811 7.66906H10.5809C10.3328 5.70933 9.63029 3.83531 8.53099 2.19653C7.43167 3.83531 6.72921 5.70933 6.4811 7.66906ZM13.7859 9.58577C13.5881 9.50006 13.3636 9.50006 13.1658 9.58577L7.48926 12.0453C7.42927 12.0713 7.37373 12.1042 7.32343 12.143C7.02556 12.3098 6.82423 12.6285 6.82423 12.9941V17.3206C6.82423 17.859 7.26073 18.2954 7.79917 18.2954C8.33762 18.2954 8.77411 17.859 8.77411 17.3206V14.0333L13.1658 15.9361C13.3636 16.0219 13.5881 16.0219 13.7859 15.9361L19.4624 13.4766C19.7477 13.353 19.9323 13.0718 19.9323 12.7609C19.9323 12.45 19.7477 12.1689 19.4624 12.0453L13.7859 9.58577ZM9.59611 16.0281L12.4873 17.2809C13.1177 17.554 13.8331 17.554 14.4636 17.2809L17.3547 16.0281L17.3551 17.969C17.3551 18.1394 17.2994 18.3051 17.1963 18.441L16.5759 17.9696C17.1963 18.441 17.1966 18.4407 17.1963 18.441L17.1953 18.4423L17.194 18.4439L17.1914 18.4473L17.1851 18.4553L17.1679 18.4767C17.1544 18.4933 17.1367 18.5143 17.1149 18.539C17.0713 18.5884 17.0106 18.653 16.9323 18.7276C16.7759 18.8767 16.5476 19.0667 16.2423 19.254C15.6269 19.6317 14.7121 19.9893 13.4752 19.9893C12.2382 19.9893 11.3244 19.6317 10.7098 19.2536C10.405 19.0661 10.1773 18.8759 10.0212 18.7266C9.94313 18.6519 9.88264 18.5871 9.83909 18.5377C9.8173 18.5129 9.7997 18.4919 9.7862 18.4753L9.76901 18.4539L9.7627 18.4457L9.7601 18.4423L9.75894 18.4407C9.75869 18.4404 9.75787 18.4393 10.38 17.9693L9.75787 18.4393C9.6559 18.3044 9.60056 18.14 9.6002 17.9707L9.59611 16.0281Z"
            fill="currentColor" />
    </g>
    <defs>
        <clipPath id="clip0_740_2285">
            <rect width="20" height="20" fill="white" />
        </clipPath>
    </defs>
</svg>