<svg width="24" height="24" viewBox="0 0 24 24" fill="none" xmlns="http://www.w3.org/2000/svg">
<path d="M2.45019 14.4348L4.10616 16.0908C4.37014 16.3682 4.72707 16.5388 5.10908 16.57C6.18634 16.658 8.2555 15.3342 8.78483 14.5186C9.19745 13.8828 9.03786 12.9898 9.03857 12.2734C11.209 11.6745 13.4997 11.6722 15.669 12.2668C15.6683 12.9832 15.507 13.8766 15.9183 14.5116C16.4452 15.3248 18.503 16.6383 19.5782 16.5563C19.9564 16.5275 20.3115 16.3621 20.5773 16.0911L22.2365 14.4318C22.8682 13.799 22.8271 12.706 22.1339 12.1278C16.6591 6.6444 8.06376 6.60467 2.55193 12.1251C1.85517 12.7066 1.81459 13.8044 2.45019 14.4348Z" stroke="currentColor" stroke-width="1.5" stroke-linecap="round" stroke-linejoin="round"/>
</svg>
