<svg width="35" height="40" viewBox="0 0 35 40" fill="none" xmlns="http://www.w3.org/2000/svg">
    <path d="M34.0915 18.207L28.4059 15.6392L22.7258 18.207V28.6426L28.4059 26.0747L34.0915 28.6426V18.207Z"
        fill="#153898" />
    <path d="M34.0914 2.5679L28.4057 3.05176e-05L22.7257 2.5679V13.0034L28.4057 10.4356L34.0914 13.0034V2.5679Z"
        fill="#153898" />
    <path d="M0 2.56777V13.0033L4.67866 0.0055542L0 2.56777Z" fill="#153898" />
    <path d="M6.68707 0.00567627L11.3658 13.0034V2.56789L6.68707 0.00567627Z" fill="#153898" />
    <path d="M4.71827 0V10.4355L0 13.0034L4.67866 0.005653L4.71827 0Z" fill="#F9B200" />
    <path d="M11.3657 13.0034L6.64746 10.4356V3.05176e-05L6.68705 0.00568352L11.3657 13.0034Z" fill="#F9B200" />
    <path
        d="M11.3657 27.2341V17.7771H0V28.6991C0 34.9434 5.06336 40 11.3035 40H22.7258V28.6368H12.7687C11.988 28.6368 11.3601 28.009 11.3601 27.2285L11.3657 27.2341Z"
        fill="#153898" />
</svg>