<svg width="179" height="65" viewBox="0 0 179 65" fill="none" xmlns="http://www.w3.org/2000/svg">
<path d="M41.6266 29.6319L35.6162 26.9138L29.6118 29.6319V40.6779L35.6162 37.9598L41.6266 40.6779V29.6319Z" fill="#153898"/>
<path d="M41.6266 13.0777L35.6162 10.3596L29.6118 13.0777V24.1237L35.6162 21.4056L41.6266 24.1237V13.0777Z" fill="#153898"/>
<path d="M5.58813 13.0778V24.1239L10.534 10.3657L5.58813 13.0778Z" fill="#153898"/>
<path d="M12.657 10.3657L17.6029 24.1239V13.0778L12.657 10.3657Z" fill="#153898"/>
<path d="M10.5759 10.3596V21.4056L5.58813 24.1237L10.534 10.3656L10.5759 10.3596Z" fill="#F9B200"/>
<path d="M17.603 24.1237L12.6152 21.4056V10.3596L12.6571 10.3656L17.603 24.1237Z" fill="#F9B200"/>
<path d="M17.6029 39.187V29.1768H5.58813V40.7377C5.58813 47.3473 10.9407 52.6997 17.5371 52.6997H29.6117V40.6718H19.0861C18.2608 40.6718 17.5969 40.0073 17.5969 39.181L17.6029 39.187Z" fill="#153898"/>
<path d="M54.2991 10.3354H56.5059V21.5312H54.2991V10.3354Z" fill="#153898"/>
<path d="M58.1804 13.5444H60.1959V14.5023C60.4291 14.1731 60.7341 13.9096 61.1049 13.7121C61.4757 13.5145 61.8524 13.4187 62.2232 13.4187H63.1801C64.0293 13.4187 64.7171 13.6881 65.2314 14.221C65.7457 14.7538 66.0089 15.4603 66.0089 16.3344V21.5311H63.838V16.4122C63.838 16.0829 63.7483 15.8135 63.5748 15.6099C63.4014 15.4064 63.1741 15.3046 62.899 15.3046H61.9421C61.5714 15.3046 61.2365 15.4423 60.9434 15.7117C60.6504 15.9811 60.459 16.3404 60.3573 16.7774V21.5251H58.1864V13.5444H58.1804Z" fill="#153898"/>
<path d="M67.9166 20.7889C67.3365 20.2141 67.0435 19.4538 67.0435 18.5198V16.6938C67.0435 16.0412 67.181 15.4724 67.4561 14.9755C67.7312 14.4786 68.12 14.0954 68.6223 13.826C69.1247 13.5566 69.7048 13.4189 70.3626 13.4189H71.2418C71.5528 13.4189 71.8637 13.4847 72.1867 13.6165C72.5036 13.7482 72.7728 13.9278 72.9881 14.1493V10.3296H75.159V21.5253H73.1436V20.4716C72.9283 20.8248 72.6412 21.1062 72.2824 21.3277C71.9176 21.5432 71.5408 21.657 71.1461 21.657H70.2012C69.2562 21.657 68.4907 21.3696 67.9106 20.7949L67.9166 20.7889ZM71.3913 19.7831C71.8279 19.7831 72.1927 19.6274 72.4857 19.3101C72.7787 18.9988 72.9462 18.5797 72.9881 18.0528V16.6638C72.9163 16.2507 72.7488 15.9155 72.5036 15.664C72.2525 15.4126 71.9594 15.2868 71.6185 15.2868H70.6437C70.2191 15.2868 69.8722 15.4305 69.6151 15.7179C69.3519 16.0053 69.2263 16.3824 69.2263 16.8554V18.3582C69.2263 18.7832 69.346 19.1305 69.5792 19.3879C69.8124 19.6514 70.1174 19.7771 70.4882 19.7771H71.3972L71.3913 19.7831Z" fill="#153898"/>
<path d="M77.288 20.8008C76.7796 20.232 76.5225 19.4837 76.5225 18.5557V13.5505H78.6934V18.5856C78.6934 18.9388 78.7831 19.2202 78.9565 19.4417C79.13 19.6633 79.3632 19.771 79.6503 19.771H80.5772C80.9301 19.771 81.247 19.6273 81.5341 19.334C81.8212 19.0406 82.0245 18.6515 82.1381 18.1725V13.5505H84.309V21.5312H82.2936V20.5074C82.0484 20.8487 81.7494 21.1241 81.3906 21.3396C81.0318 21.5552 80.6909 21.6569 80.3619 21.6569H79.3094C78.4661 21.6569 77.7903 21.3696 77.282 20.8008H77.288Z" fill="#153898"/>
<path d="M86.2646 20.8845C85.6785 20.3756 85.3855 19.6991 85.3855 18.8669H87.5265C87.5265 19.1542 87.6222 19.3877 87.8196 19.5614C88.0169 19.735 88.2741 19.8248 88.597 19.8248H90.0323C90.6722 19.8248 90.9892 19.6512 90.9892 19.2979V19.0285C90.9892 18.9208 90.9354 18.825 90.8277 18.7352C90.7201 18.6454 90.5766 18.5855 90.3971 18.5496L87.6341 18.0706C86.9823 17.9628 86.468 17.7293 86.0912 17.3761C85.7144 17.0169 85.523 16.5978 85.523 16.1188V15.592C85.523 14.9095 85.8041 14.3766 86.3603 13.9934C86.9165 13.6103 87.6999 13.4187 88.6987 13.4187H89.9426C90.8397 13.4187 91.5573 13.6582 92.1076 14.1312C92.6578 14.6041 92.9329 15.2328 92.9329 16.0111H90.7918C90.7918 15.7776 90.7141 15.592 90.5586 15.4543C90.4031 15.3166 90.1998 15.2447 89.9426 15.2447H88.7286C88.0348 15.2447 87.688 15.4064 87.688 15.7237V15.9811C87.688 16.1009 87.7358 16.1967 87.8255 16.2745C87.9152 16.3523 88.0468 16.4122 88.2143 16.4421L91.1208 16.969C91.7248 17.0768 92.2152 17.3043 92.592 17.6515C92.9628 17.9988 93.1482 18.3879 93.1482 18.825V19.3997C93.1482 20.0942 92.8611 20.639 92.2929 21.0461C91.7248 21.4533 90.9653 21.6568 90.0144 21.6568H88.5791C87.6102 21.6568 86.8328 21.3994 86.2467 20.8905L86.2646 20.8845Z" fill="#153898"/>
<path d="M95.4627 20.8847C95.0261 20.4596 94.8048 19.795 94.8048 18.903V15.4006H93.3994V13.5446H94.8706V11.1318H96.9817V13.5446H99.0569V15.4006H96.9817V18.8072C96.9817 19.1065 97.0355 19.3221 97.1492 19.4657C97.2628 19.6034 97.4362 19.6753 97.6814 19.6753H99.0569V21.5313H97.5259C96.587 21.5313 95.8993 21.3157 95.4627 20.8907V20.8847Z" fill="#153898"/>
<path d="M100.193 13.5446H102.209V14.5684C102.412 14.257 102.699 14.0056 103.082 13.808C103.459 13.6104 103.859 13.5146 104.272 13.5146H105.36V15.4006H104.272C103.71 15.4006 103.249 15.5742 102.897 15.9095C102.544 16.2507 102.37 16.6878 102.37 17.2206V21.5253H100.199V13.5446H100.193Z" fill="#153898"/>
<path d="M106.287 12.4369C106.036 12.1974 105.911 11.8801 105.911 11.485C105.911 11.0898 106.036 10.7725 106.287 10.533C106.539 10.2936 106.873 10.1738 107.286 10.1738C107.699 10.1738 108.034 10.2936 108.285 10.533C108.536 10.7725 108.662 11.0898 108.662 11.485C108.662 11.8801 108.536 12.1974 108.285 12.4369C108.034 12.6764 107.699 12.7961 107.286 12.7961C106.873 12.7961 106.539 12.6764 106.287 12.4369ZM106.198 13.5445H108.369V21.5252H106.198V13.5445Z" fill="#153898"/>
<path d="M110.623 21.0343C110.115 20.6212 109.858 20.0704 109.858 19.3879V18.7951C109.858 18.1246 110.127 17.5798 110.659 17.1727C111.191 16.7596 111.897 16.556 112.77 16.556H113.745C114.02 16.556 114.319 16.5919 114.642 16.6698C114.959 16.7416 115.252 16.8434 115.521 16.9751V16.1429C115.521 15.8795 115.431 15.658 115.258 15.4963C115.085 15.3287 114.851 15.2508 114.564 15.2508H113.189C112.89 15.2508 112.651 15.3227 112.471 15.4604C112.292 15.5981 112.202 15.7837 112.202 16.0172H110.091C110.091 15.2389 110.378 14.6102 110.946 14.1373C111.514 13.6643 112.262 13.4248 113.189 13.4248H114.564C115.503 13.4248 116.257 13.6703 116.831 14.1672C117.405 14.6641 117.692 15.3227 117.692 16.1429V21.5312H115.677V20.5733C115.42 20.9026 115.109 21.166 114.732 21.3636C114.361 21.5611 113.99 21.6569 113.631 21.6569H112.639C111.807 21.6569 111.138 21.4474 110.623 21.0343ZM113.787 19.9447C114.182 19.9447 114.534 19.8429 114.839 19.6393C115.15 19.4358 115.372 19.1663 115.509 18.8251V18.5557C115.336 18.4299 115.103 18.3282 114.798 18.2503C114.493 18.1785 114.17 18.1366 113.829 18.1366H112.824C112.567 18.1366 112.363 18.2024 112.202 18.3282C112.041 18.4539 111.963 18.6275 111.963 18.8371V19.2502C111.963 19.4537 112.053 19.6154 112.226 19.7471C112.399 19.8788 112.633 19.9387 112.92 19.9387H113.781L113.787 19.9447Z" fill="#153898"/>
<path d="M119.708 20.9265C119.265 20.5253 119.044 19.9087 119.044 19.0645V10.3354H121.215V18.9388C121.215 19.1962 121.274 19.3818 121.388 19.4956C121.508 19.6153 121.693 19.6692 121.944 19.6692H122.805V21.5252H121.783C120.838 21.5252 120.138 21.3276 119.696 20.9265H119.708Z" fill="#153898"/>
<path d="M56.1829 36.756C55.5849 36.4207 55.1244 35.9478 54.7955 35.3431C54.4665 34.7324 54.2991 34.0319 54.2991 33.2297V25.9375H56.5059V33.1638C56.5059 33.8044 56.6673 34.3193 56.9903 34.7144C57.3132 35.1096 57.7378 35.3072 58.2581 35.3072H59.9506C60.4829 35.3072 60.9135 35.1096 61.2424 34.7144C61.5713 34.3193 61.7388 33.8044 61.7388 33.1638V25.9375H63.9456V33.2297C63.9456 34.0319 63.7781 34.7324 63.4492 35.3431C63.1203 35.9538 62.6478 36.4207 62.0438 36.756C61.4398 37.0913 60.7401 37.2589 59.9506 37.2589H58.2581C57.4687 37.2589 56.775 37.0913 56.1829 36.756Z" fill="#153898"/>
<path d="M65.3987 29.1526H67.4141V30.1105C67.6473 29.7812 67.9524 29.5178 68.3231 29.3202C68.6939 29.1227 69.0707 29.0269 69.4415 29.0269H70.3984C71.2476 29.0269 71.9354 29.2963 72.4497 29.8291C72.964 30.362 73.2271 31.0684 73.2271 31.9425V37.1392H71.0562V32.0204C71.0562 31.6911 70.9665 31.4217 70.7931 31.2181C70.6197 31.0145 70.3924 30.9128 70.1173 30.9128H69.1604C68.7896 30.9128 68.4547 31.0505 68.1617 31.3199C67.8686 31.5893 67.6773 31.9485 67.5756 32.3856V37.1333H65.4047V29.1526H65.3987Z" fill="#153898"/>
<path d="M74.9617 28.039C74.7106 27.7995 74.585 27.4822 74.585 27.087C74.585 26.6919 74.7106 26.3746 74.9617 26.1351C75.2129 25.8956 75.5478 25.7759 75.9605 25.7759C76.3731 25.7759 76.708 25.8956 76.9592 26.1351C77.2104 26.3746 77.336 26.6919 77.336 27.087C77.336 27.4822 77.2104 27.7995 76.9592 28.039C76.708 28.2784 76.3731 28.3982 75.9605 28.3982C75.5478 28.3982 75.2129 28.2784 74.9617 28.039ZM74.872 29.1525H77.0429V37.1332H74.872V29.1525Z" fill="#153898"/>
<path d="M81.1096 36.8877C80.9003 36.72 80.7208 36.4566 80.5773 36.0974L77.8323 29.1584H80.1168L82.0007 34.6425H82.0306L83.9324 29.1584H86.2169L83.0054 37.1391H81.887C81.5761 37.1391 81.3189 37.0553 81.1096 36.8937V36.8877Z" fill="#153898"/>
<path d="M87.8376 36.8878C87.3233 36.6363 86.9166 36.2831 86.6296 35.8341C86.3425 35.3791 86.199 34.8642 86.199 34.2775V32.2119C86.199 31.5833 86.3425 31.0265 86.6296 30.5476C86.9166 30.0686 87.3173 29.6974 87.8376 29.428C88.352 29.1646 88.95 29.0269 89.6198 29.0269H90.8996C91.9223 29.0269 92.7416 29.3142 93.3576 29.889C93.9736 30.4637 94.2846 31.2301 94.2846 32.194V33.8883H88.3759V34.2715C88.3759 34.6247 88.4895 34.9061 88.7108 35.1216C88.9321 35.3372 89.2371 35.4389 89.6198 35.4389H90.8638C91.2346 35.4389 91.5395 35.3551 91.7668 35.1935C91.9941 35.0258 92.1077 34.8103 92.1077 34.5469H94.2487C94.2487 35.0797 94.1052 35.5527 93.8181 35.9718C93.5311 36.3909 93.1304 36.7082 92.6101 36.9297C92.0957 37.1512 91.4977 37.265 90.8279 37.265H89.6138C88.944 37.265 88.352 37.1393 87.8317 36.8878H87.8376ZM92.1436 32.3197V32.194C92.1436 31.7809 92.0299 31.4456 91.8087 31.1942C91.5874 30.9427 91.2884 30.817 90.9116 30.817H89.6198C89.2371 30.817 88.9261 30.9487 88.6928 31.2181C88.4596 31.4875 88.34 31.8348 88.34 32.2718V32.3197H92.1436Z" fill="#153898"/>
<path d="M95.355 29.1525H97.3704V30.1763C97.5737 29.8649 97.8608 29.6135 98.2436 29.4159C98.6203 29.2184 99.021 29.1226 99.4337 29.1226H100.522V31.0085H99.4337C98.8715 31.0085 98.411 31.1821 98.0582 31.5174C97.7053 31.8586 97.5319 32.2957 97.5319 32.8285V37.1332H95.361V29.1525H95.355Z" fill="#153898"/>
<path d="M101.569 36.4927C100.983 35.9838 100.69 35.3072 100.69 34.475H102.831C102.831 34.7624 102.926 34.9959 103.124 35.1695C103.321 35.3432 103.578 35.433 103.901 35.433H105.337C105.976 35.433 106.293 35.2593 106.293 34.9061V34.6367C106.293 34.5289 106.24 34.4331 106.132 34.3433C106.024 34.2535 105.881 34.1936 105.701 34.1577L102.938 33.6788C102.286 33.571 101.772 33.3375 101.395 32.9843C101.019 32.625 100.827 32.206 100.827 31.727V31.2001C100.827 30.5176 101.108 29.9848 101.665 29.6016C102.221 29.2184 103.004 29.0269 104.003 29.0269H105.247C106.144 29.0269 106.862 29.2663 107.412 29.7393C107.962 30.2123 108.237 30.8409 108.237 31.6192H106.096C106.096 31.3857 106.018 31.2001 105.863 31.0624C105.707 30.9247 105.504 30.8529 105.247 30.8529H104.033C103.339 30.8529 102.992 31.0145 102.992 31.3319V31.5893C102.992 31.709 103.04 31.8048 103.13 31.8827C103.219 31.9605 103.351 32.0204 103.518 32.0503L106.425 32.5772C107.029 32.6849 107.519 32.9124 107.896 33.2597C108.267 33.6069 108.452 33.9961 108.452 34.4331V35.0079C108.452 35.7024 108.165 36.2472 107.597 36.6543C107.029 37.0614 106.27 37.265 105.319 37.265H103.883C102.914 37.265 102.137 37.0075 101.551 36.4986L101.569 36.4927Z" fill="#153898"/>
<path d="M109.816 28.039C109.565 27.7995 109.439 27.4822 109.439 27.087C109.439 26.6919 109.565 26.3746 109.816 26.1351C110.067 25.8956 110.402 25.7759 110.815 25.7759C111.227 25.7759 111.562 25.8956 111.813 26.1351C112.064 26.3746 112.19 26.6919 112.19 27.087C112.19 27.4822 112.064 27.7995 111.813 28.039C111.562 28.2784 111.227 28.3982 110.815 28.3982C110.402 28.3982 110.067 28.2784 109.816 28.039ZM109.732 29.1525H111.903V37.1332H109.732V29.1525Z" fill="#153898"/>
<path d="M115.067 36.4926C114.63 36.0675 114.409 35.4029 114.409 34.5109V31.0085H113.003V29.1525H114.475V26.7397H116.586V29.1525H118.661V31.0085H116.586V34.4151C116.586 34.7144 116.64 34.93 116.753 35.0737C116.867 35.2114 117.04 35.2832 117.285 35.2832H118.661V37.1392H117.13C116.191 37.1392 115.503 36.9236 115.067 36.4986V36.4926Z" fill="#153898"/>
<path d="M120.664 39.6537C120.108 39.1687 119.791 38.5341 119.731 37.7438H121.872C121.896 37.9773 121.992 38.1689 122.16 38.3126C122.327 38.4563 122.542 38.5281 122.799 38.5281H124.109C124.438 38.5281 124.707 38.3904 124.917 38.121C125.126 37.8516 125.227 37.4924 125.227 37.0553V36.0136C124.982 36.3428 124.701 36.6003 124.39 36.7919C124.073 36.9775 123.762 37.0733 123.457 37.0733H122.405C121.561 37.0733 120.886 36.7919 120.377 36.2351C119.869 35.6783 119.612 34.9299 119.612 34.0019V29.1584H121.783V34.0379C121.783 34.3911 121.872 34.6725 122.046 34.894C122.219 35.1155 122.453 35.2233 122.74 35.2233H123.667C124.019 35.2233 124.336 35.0796 124.623 34.7862C124.911 34.4929 125.114 34.1037 125.227 33.6248V29.1644H127.398V37.0673C127.398 37.7259 127.261 38.3066 126.992 38.8095C126.723 39.3124 126.334 39.7016 125.832 39.977C125.329 40.2524 124.755 40.3901 124.103 40.3901H122.793C121.932 40.3901 121.221 40.1446 120.658 39.6596L120.664 39.6537Z" fill="#153898"/>
<path d="M134.354 36.87C133.84 36.6065 133.439 36.2413 133.158 35.7564C132.877 35.2774 132.733 34.7206 132.733 34.092V32.2181C132.733 31.5894 132.877 31.0326 133.164 30.5477C133.451 30.0627 133.851 29.6856 134.372 29.4221C134.886 29.1587 135.484 29.021 136.154 29.021H137.589C138.259 29.021 138.851 29.1527 139.372 29.4221C139.886 29.6915 140.292 30.0627 140.58 30.5477C140.867 31.0326 141.01 31.5894 141.01 32.2181V34.092C141.01 34.7206 140.867 35.2774 140.58 35.7564C140.292 36.2353 139.892 36.6065 139.372 36.87C138.857 37.1334 138.253 37.2591 137.571 37.2591H136.136C135.466 37.2591 134.874 37.1274 134.354 36.87ZM137.541 35.3912C137.936 35.3912 138.247 35.2535 138.486 34.9841C138.726 34.7146 138.839 34.3554 138.839 33.9184V32.3677C138.839 31.9307 138.72 31.5774 138.486 31.302C138.253 31.0266 137.942 30.8949 137.559 30.8949H136.184C135.801 30.8949 135.49 31.0326 135.257 31.302C135.024 31.5715 134.904 31.9307 134.904 32.3677V33.9184C134.904 34.3554 135.024 34.7087 135.257 34.9841C135.49 35.2535 135.795 35.3912 136.166 35.3912H137.541Z" fill="#153898"/>
<path d="M142.78 31.0087H141.405V29.1527H142.78V28.6258C142.78 27.7637 143.055 27.0872 143.606 26.6022C144.156 26.1173 144.915 25.8718 145.896 25.8718H147.044V27.7278H145.926C145.585 27.7278 145.34 27.7996 145.184 27.9493C145.029 28.099 144.951 28.3325 144.951 28.6558V29.1527H146.871V31.0087H144.951V37.1334H142.78V31.0087Z" fill="#153898"/>
<path d="M54.2991 41.5037H56.5059V46.1256H61.7149V41.5037H63.9217V52.6993H61.7149V48.0475H56.5059V52.6993H54.2991V41.5037Z" fill="#153898"/>
<path d="M66.7325 52.4361C66.2182 52.1727 65.8175 51.8075 65.5364 51.3225C65.2553 50.8436 65.1118 50.2868 65.1118 49.6582V47.7842C65.1118 47.1556 65.2553 46.5988 65.5424 46.1138C65.8295 45.6289 66.2302 45.2517 66.7505 44.9883C67.2648 44.7249 67.8628 44.5872 68.5327 44.5872H69.968C70.6378 44.5872 71.2298 44.7189 71.7501 44.9883C72.2645 45.2577 72.6711 45.6289 72.9582 46.1138C73.2453 46.5988 73.3888 47.1556 73.3888 47.7842V49.6582C73.3888 50.2868 73.2453 50.8436 72.9582 51.3225C72.6711 51.8015 72.2704 52.1727 71.7501 52.4361C71.2358 52.6995 70.6318 52.8253 69.95 52.8253H68.5147C67.8449 52.8253 67.2528 52.6936 66.7325 52.4361ZM69.9201 50.9573C70.3148 50.9573 70.6258 50.8196 70.865 50.5502C71.1043 50.2808 71.2179 49.9216 71.2179 49.4845V47.9339C71.2179 47.4968 71.0983 47.1436 70.865 46.8682C70.6318 46.5988 70.3208 46.4611 69.9381 46.4611H68.5625C68.1798 46.4611 67.8688 46.5988 67.6356 46.8682C67.4023 47.1376 67.2827 47.4968 67.2827 47.9339V49.4845C67.2827 49.9216 67.4023 50.2748 67.6356 50.5502C67.8688 50.8196 68.1738 50.9573 68.5446 50.9573H69.9201Z" fill="#153898"/>
<path d="M79.9433 52.2984C79.3213 51.9451 78.8369 51.4482 78.496 50.8016C78.1551 50.155 77.9817 49.4126 77.9817 48.5684V45.6288C77.9817 44.7847 78.1551 44.0423 78.502 43.3957C78.8489 42.7491 79.3393 42.2522 79.9732 41.8989C80.6071 41.5457 81.3367 41.3721 82.168 41.3721H83.8605C84.6619 41.3721 85.3616 41.5457 85.9716 41.881C86.5816 42.2222 87.0481 42.7012 87.383 43.3119C87.7179 43.9225 87.8854 44.635 87.8854 45.4492H85.7144C85.7144 44.8086 85.541 44.2937 85.2061 43.9046C84.8652 43.5154 84.4167 43.3238 83.8665 43.3238H82.174C81.576 43.3238 81.0975 43.5453 80.7387 43.9884C80.3739 44.4314 80.1945 45.0122 80.1945 45.7246V48.4726C80.1945 49.1851 80.3679 49.7659 80.7207 50.2089C81.0736 50.6519 81.5341 50.8734 82.1082 50.8734H83.8366C84.3988 50.8734 84.8592 50.6579 85.2181 50.2149C85.5769 49.7778 85.7563 49.2031 85.7563 48.4906H87.9272C87.9272 49.3527 87.7538 50.1131 87.4129 50.7717C87.072 51.4302 86.5936 51.9331 85.9776 52.2924C85.3616 52.6516 84.644 52.8252 83.8366 52.8252H82.1082C81.2889 52.8252 80.5653 52.6516 79.9433 52.2984Z" fill="#153898"/>
<path d="M88.8364 41.5038H91.0073V45.5151C91.2406 45.2397 91.5336 45.0122 91.8805 44.8445C92.2274 44.6769 92.5623 44.5871 92.8792 44.5871H93.872C94.7212 44.5871 95.409 44.8565 95.9233 45.3894C96.4376 45.9222 96.7008 46.6287 96.7008 47.5028V52.6995H94.5298V47.5806C94.5298 47.2513 94.4401 46.9819 94.2667 46.7783C94.0933 46.5748 93.866 46.473 93.5849 46.473H92.5922C92.2214 46.473 91.8865 46.6107 91.5934 46.8801C91.3004 47.1495 91.109 47.5087 91.0073 47.9458V52.6935H88.8364V41.4978V41.5038Z" fill="#153898"/>
<path d="M98.429 43.6112C98.1778 43.3718 98.0522 43.0544 98.0522 42.6593C98.0522 42.2642 98.1778 41.9468 98.429 41.7074C98.6802 41.4679 99.0151 41.3481 99.4277 41.3481C99.8404 41.3481 100.175 41.4679 100.426 41.7074C100.678 41.9468 100.803 42.2642 100.803 42.6593C100.803 43.0544 100.678 43.3718 100.426 43.6112C100.175 43.8507 99.8404 43.9705 99.4277 43.9705C99.0151 43.9705 98.6802 43.8507 98.429 43.6112ZM98.3393 44.7188H100.51V52.6995H98.3393V44.7188Z" fill="#153898"/>
<path d="M105.677 41.5037H107.645L111.305 48.1552L114.881 41.5037H116.849V52.6993H114.69V45.6167L112.34 49.8735C112.178 50.1609 112.017 50.3644 111.855 50.4901C111.688 50.6159 111.502 50.6758 111.287 50.6758H110.677L107.836 45.6227V52.7053H105.677V41.5096V41.5037Z" fill="#153898"/>
<path d="M118.739 43.6112C118.488 43.3718 118.362 43.0544 118.362 42.6593C118.362 42.2642 118.488 41.9468 118.739 41.7074C118.99 41.4679 119.325 41.3481 119.738 41.3481C120.15 41.3481 120.485 41.4679 120.736 41.7074C120.987 41.9468 121.113 42.2642 121.113 42.6593C121.113 43.0544 120.987 43.3718 120.736 43.6112C120.485 43.8507 120.15 43.9705 119.738 43.9705C119.325 43.9705 118.99 43.8507 118.739 43.6112ZM118.649 44.7188H120.82V52.6995H118.649V44.7188Z" fill="#153898"/>
<path d="M122.56 44.7187H124.576V45.6767C124.809 45.3474 125.114 45.0839 125.485 44.8864C125.856 44.6888 126.232 44.593 126.603 44.593H127.56C128.409 44.593 129.097 44.8624 129.611 45.3953C130.126 45.9281 130.389 46.6346 130.389 47.5087V52.7054H128.218V47.5865C128.218 47.2572 128.128 46.9878 127.955 46.7843C127.781 46.5807 127.554 46.4789 127.279 46.4789H126.322C125.951 46.4789 125.616 46.6166 125.323 46.886C125.03 47.1554 124.839 47.5147 124.737 47.9517V52.6994H122.566V44.7187H122.56Z" fill="#153898"/>
<path d="M131.746 41.5038H133.917V45.5151C134.15 45.2397 134.444 45.0122 134.79 44.8445C135.137 44.6769 135.472 44.5871 135.789 44.5871H136.782C137.631 44.5871 138.319 44.8565 138.833 45.3894C139.348 45.9222 139.611 46.6287 139.611 47.5028V52.6995H137.44V47.5806C137.44 47.2513 137.35 46.9819 137.177 46.7783C137.003 46.5748 136.776 46.473 136.495 46.473H135.502C135.131 46.473 134.796 46.6107 134.503 46.8801C134.21 47.1495 134.019 47.5087 133.917 47.9458V52.6935H131.746V41.4978V41.5038Z" fill="#153898"/>
<path d="M146.393 52.2984C145.771 51.9451 145.286 51.4482 144.945 50.8016C144.604 50.155 144.431 49.4126 144.431 48.5684V45.6288C144.431 44.7847 144.604 44.0423 144.951 43.3957C145.298 42.7491 145.788 42.2522 146.422 41.8989C147.056 41.5457 147.786 41.3721 148.617 41.3721H150.31C151.111 41.3721 151.811 41.5457 152.421 41.881C153.031 42.2222 153.497 42.7012 153.832 43.3119C154.167 43.9225 154.335 44.635 154.335 45.4492H152.164C152.164 44.8086 151.99 44.2937 151.655 43.9046C151.314 43.5154 150.866 43.3238 150.316 43.3238H148.623C148.025 43.3238 147.547 43.5453 147.188 43.9884C146.823 44.4314 146.644 45.0122 146.644 45.7246V48.4726C146.644 49.1851 146.817 49.7659 147.17 50.2089C147.523 50.6519 147.983 50.8734 148.557 50.8734H150.286C150.848 50.8734 151.308 50.6579 151.667 50.2149C152.026 49.7778 152.206 49.2031 152.206 48.4906H154.376C154.376 49.3527 154.203 50.1131 153.862 50.7717C153.521 51.4302 153.043 51.9331 152.427 52.2924C151.811 52.6516 151.093 52.8252 150.286 52.8252H148.557C147.738 52.8252 147.014 52.6516 146.393 52.2984Z" fill="#153898"/>
<path d="M155.656 43.6112C155.405 43.3718 155.28 43.0544 155.28 42.6593C155.28 42.2642 155.405 41.9468 155.656 41.7074C155.907 41.4679 156.242 41.3481 156.655 41.3481C157.068 41.3481 157.403 41.4679 157.654 41.7074C157.905 41.9468 158.031 42.2642 158.031 42.6593C158.031 43.0544 157.905 43.3718 157.654 43.6112C157.403 43.8507 157.068 43.9705 156.655 43.9705C156.242 43.9705 155.907 43.8507 155.656 43.6112ZM155.567 44.7188H157.738V52.6995H155.567V44.7188Z" fill="#153898"/>
<path d="M160.901 52.0587C160.465 51.6337 160.243 50.9691 160.243 50.077V46.5746H158.838V44.7187H160.309V42.3059H162.42V44.7187H164.495V46.5746H162.42V49.9813C162.42 50.2806 162.474 50.4961 162.588 50.6398C162.701 50.7775 162.875 50.8494 163.12 50.8494H164.495V52.7053H162.964C162.025 52.7053 161.338 52.4898 160.901 52.0647V52.0587Z" fill="#153898"/>
<path d="M166.499 55.2201C165.943 54.7351 165.626 54.1005 165.566 53.3102H167.707C167.731 53.5437 167.827 53.7353 167.994 53.879C168.161 54.0227 168.377 54.0945 168.634 54.0945H169.944C170.273 54.0945 170.542 53.9568 170.751 53.6874C170.96 53.418 171.062 53.0588 171.062 52.6217V51.58C170.817 51.9092 170.536 52.1667 170.225 52.3583C169.908 52.5439 169.597 52.6397 169.292 52.6397H168.239C167.396 52.6397 166.72 52.3583 166.212 51.8015C165.703 51.2447 165.446 50.4963 165.446 49.5683V44.7249H167.617V49.6043C167.617 49.9575 167.707 50.2389 167.88 50.4604C168.054 50.6819 168.287 50.7897 168.574 50.7897H169.501C169.854 50.7897 170.171 50.646 170.458 50.3526C170.745 50.0593 170.948 49.6701 171.062 49.1912V44.7308H173.233V52.6337C173.233 53.2923 173.095 53.873 172.826 54.3759C172.557 54.8788 172.168 55.268 171.666 55.5434C171.164 55.8188 170.59 55.9565 169.938 55.9565H168.628C167.767 55.9565 167.055 55.711 166.493 55.226L166.499 55.2201Z" fill="#153898"/>
</svg>
