<svg width="24" height="24" viewBox="0 0 24 24" fill="none" xmlns="http://www.w3.org/2000/svg">
<path d="M19.75 19.5H3.75C2.79 19.5 2 18.71 2 17.75V5.75C2 5.28 2.18 4.84 2.51 4.51C2.84 4.18 3.28 4 3.75 4H19.75C20.21 4 20.65 4.18 20.99 4.51C21.32 4.84 21.5 5.28 21.5 5.75V17.75C21.5 18.71 20.71 19.5 19.75 19.5ZM3.5 6.56V17.75C3.5 17.89 3.61 18 3.75 18H19.75C19.89 18 20 17.89 20 17.75V6.56L13.69 12.87C12.65 13.91 10.84 13.91 9.8 12.87L3.5 6.56ZM4.56 5.5L10.87 11.81C11.34 12.28 12.16 12.28 12.64 11.81L18.95 5.5H4.56Z" fill="currentColor"/>
</svg>
