<svg width="128" height="200" viewBox="0 0 128 200" fill="none" xmlns="http://www.w3.org/2000/svg">
<path d="M63.5593 75.0089L35.2797 62.1092L7 75.0089V101.416L35.2797 88.516L63.5593 101.416V75.0089Z" fill="#8ED8F8"/>
<path d="M63.5593 143.455L35.2797 130.556L7 143.455V169.862L35.2797 156.962L63.5593 169.862V143.455Z" fill="#8ED8F8"/>
<path d="M120.061 101.257L91.7817 88.3569L63.502 101.257V127.663L91.7817 114.764L120.061 127.663V101.257Z" fill="#8ED8F8"/>
<path d="M120.061 56.9175L91.7817 44.0178L63.502 56.9175V75.3415L91.7817 62.4418L120.061 75.3415V56.9175Z" fill="#F9B200"/>
<path d="M120.061 168.532L91.7817 155.632L63.502 168.532V186.956L91.7817 174.056L120.061 186.956V168.532Z" fill="#8ED8F8"/>
<path d="M63.8603 49.6289L35.5807 36.7292L7.301 49.6289V58.0166L35.5807 45.1169L63.8603 58.0166V49.6289Z" fill="#8ED8F8"/>
<path d="M120.061 135.878L91.7817 122.978L63.502 135.878V144.265L91.7817 131.38L120.061 144.265V135.878Z" fill="#8ED8F8"/>
<path d="M63.5593 127.562L35.2797 114.662L7 127.562V135.95L35.2797 123.05L63.5593 135.95V127.562Z" fill="#F9B200"/>
<path d="M63.5593 186.522L35.2797 173.622L7 186.522V194.924L35.2797 182.024L63.5593 194.924V186.522Z" fill="#8ED8F8"/>
<path d="M63.5593 39.7083L35.2797 26.8086L7 39.7083V44.7264L35.2797 31.8267L63.5593 44.7264V39.7083Z" fill="#F9B200"/>
<path d="M120.061 194.982L91.7817 182.082L63.502 194.982V200L91.7817 187.1L120.061 200V194.982Z" fill="#F9B200"/>
</svg>
